<svg xmlns="http://www.w3.org/2000/svg" viewBox="0 0 256 256" role="img" aria-label="Kibo curious">
  <g transform="rotate(-5 128 128)">
    <ellipse cx="128" cy="226" rx="54" ry="12" fill="#071326" opacity=".16"/>
    <rect x="160" y="105" width="34" height="58" rx="14" fill="#071326"/>
    <path d="M82 210c-10 0-18-8-18-18v-5h34v5c0 10-7 18-16 18Zm92 0c-10 0-18-8-18-18v-5h34v5c0 10-7 18-16 18Z" fill="#071326"/>
    <path d="M128 36c46 0 80 38 80 89 0 58-35 95-80 95s-80-37-80-95c0-51 34-89 80-89Z" fill="#F5B642"/>
    <path d="M80 84 128 24l48 60-26-8-22-30-22 30-26 8Z" fill="#FFFFFF"/>
    <circle cx="98" cy="119" r="16" fill="#071326"/><circle cx="93" cy="113" r="5" fill="#FFFFFF"/>
    <circle cx="158" cy="121" r="10" fill="#071326"/><circle cx="155" cy="117" r="3" fill="#FFFFFF"/>
    <path d="M111 154c10 8 25 8 35 0" fill="none" stroke="#071326" stroke-width="8" stroke-linecap="round"/>
    <path d="M55 131c-19 12-24 27-11 37M201 132c21 1 34-7 39-23" fill="none" stroke="#F5B642" stroke-width="18" stroke-linecap="round"/>
  </g>
</svg>
