<svg xmlns="http://www.w3.org/2000/svg" viewBox="0 0 256 256" role="img" aria-label="Kibo excited">
  <ellipse cx="128" cy="226" rx="52" ry="12" fill="#071326" opacity=".16"/>
  <path d="M82 211c-10 0-18-8-18-18v-7h34v7c0 10-7 18-16 18Zm92 0c-10 0-18-8-18-18v-7h34v7c0 10-7 18-16 18Z" fill="#071326"/>
  <rect x="160" y="102" width="35" height="60" rx="14" fill="#071326"/>
  <path d="M128 34c47 0 82 39 82 90 0 60-36 97-82 97s-82-37-82-97c0-51 35-90 82-90Z" fill="#F5B642"/>
  <path d="M78 84 128 22l50 62-28-8-22-31-22 31-28 8Z" fill="#FFFFFF"/>
  <path d="m101 104 5 12 13 1-10 8 3 13-11-7-11 7 3-13-10-8 13-1 5-12Zm54 0 5 12 13 1-10 8 3 13-11-7-11 7 3-13-10-8 13-1 5-12Z" fill="#071326"/>
  <path d="M98 153c14 20 46 20 60 0" fill="none" stroke="#071326" stroke-width="10" stroke-linecap="round"/>
  <path d="M55 120c-30-20-25-45-5-52M201 120c30-20 25-45 5-52" fill="none" stroke="#F5B642" stroke-width="18" stroke-linecap="round"/>
</svg>
