<svg xmlns="http://www.w3.org/2000/svg" viewBox="0 0 256 256" role="img" aria-label="Kibo happy">
  <ellipse cx="128" cy="226" rx="58" ry="12" fill="#071326" opacity=".16"/>
  <rect x="160" y="104" width="35" height="58" rx="14" fill="#071326"/>
  <path d="M82 210c-10 0-18-8-18-18v-5h34v5c0 10-7 18-16 18Zm92 0c-10 0-18-8-18-18v-5h34v5c0 10-7 18-16 18Z" fill="#071326"/>
  <path d="M128 36c46 0 80 38 80 89 0 58-35 95-80 95s-80-37-80-95c0-51 34-89 80-89Z" fill="#F5B642"/>
  <path d="M80 84 128 24l48 60-26-8-22-30-22 30-26 8Z" fill="#FFFFFF"/>
  <path d="M89 117c8-9 20-9 28 0M139 117c8-9 20-9 28 0" fill="none" stroke="#071326" stroke-width="9" stroke-linecap="round"/>
  <path d="M99 149c13 22 45 22 58 0" fill="none" stroke="#071326" stroke-width="10" stroke-linecap="round"/>
  <path d="M57 129c-24 10-31 27-19 39M199 129c24 10 31 27 19 39" fill="none" stroke="#F5B642" stroke-width="18" stroke-linecap="round"/>
</svg>
