<svg xmlns="http://www.w3.org/2000/svg" viewBox="0 0 256 256" role="img" aria-label="Kibo thinking">
  <circle cx="198" cy="55" r="18" fill="#FFFFFF"/><circle cx="223" cy="35" r="10" fill="#FFFFFF"/><circle cx="179" cy="78" r="8" fill="#FFFFFF"/>
  <ellipse cx="128" cy="226" rx="54" ry="12" fill="#071326" opacity=".16"/>
  <rect x="158" y="106" width="34" height="58" rx="14" fill="#071326"/>
  <path d="M83 210c-10 0-18-8-18-18v-5h34v5c0 10-7 18-16 18Zm92 0c-10 0-18-8-18-18v-5h34v5c0 10-7 18-16 18Z" fill="#071326"/>
  <path d="M128 38c46 0 80 38 80 89 0 58-35 95-80 95s-80-37-80-95c0-51 34-89 80-89Z" fill="#F5B642"/>
  <path d="M80 84 128 24l48 60-26-8-22-30-22 30-26 8Z" fill="#FFFFFF"/>
  <circle cx="101" cy="116" r="12" fill="#071326"/><circle cx="107" cy="112" r="4" fill="#FFFFFF"/>
  <circle cx="154" cy="113" r="12" fill="#071326"/><circle cx="160" cy="109" r="4" fill="#FFFFFF"/>
  <path d="M110 153c11-6 25-6 36 0" fill="none" stroke="#071326" stroke-width="8" stroke-linecap="round"/>
  <path d="M57 132c-20 8-28 20-23 33M199 132c14 12 25 15 35 8" fill="none" stroke="#F5B642" stroke-width="18" stroke-linecap="round"/>
</svg>
