<svg xmlns="http://www.w3.org/2000/svg" viewBox="0 0 256 256" role="img" aria-label="Kibo waving">
  <ellipse cx="128" cy="226" rx="54" ry="12" fill="#071326" opacity=".16"/>
  <rect x="160" y="105" width="34" height="58" rx="14" fill="#071326"/>
  <path d="M82 210c-10 0-18-8-18-18v-5h34v5c0 10-7 18-16 18Zm92 0c-10 0-18-8-18-18v-5h34v5c0 10-7 18-16 18Z" fill="#071326"/>
  <path d="M128 36c46 0 80 38 80 89 0 58-35 95-80 95s-80-37-80-95c0-51 34-89 80-89Z" fill="#F5B642"/>
  <path d="M80 84 128 24l48 60-26-8-22-30-22 30-26 8Z" fill="#FFFFFF"/>
  <path d="M89 117c8-9 20-9 28 0M139 117c8-9 20-9 28 0" fill="none" stroke="#071326" stroke-width="9" stroke-linecap="round"/>
  <path d="M101 150c13 18 41 18 54 0" fill="none" stroke="#071326" stroke-width="9" stroke-linecap="round"/>
  <path d="M57 132c-22 10-29 24-18 36" fill="none" stroke="#F5B642" stroke-width="18" stroke-linecap="round"/>
  <path d="M196 113c27-31 19-54 3-65" fill="none" stroke="#F5B642" stroke-width="18" stroke-linecap="round"/>
  <path d="m210 48 11-11m-3 29 17-1m-34-33 2-17" stroke="#FFFFFF" stroke-width="7" stroke-linecap="round"/>
</svg>
