<svg xmlns="http://www.w3.org/2000/svg" viewBox="0 0 256 256" role="img" aria-label="Kibo achievement unlock animation">
  <style>.body{animation:pop 1.2s ease-in-out infinite}.burst{animation:burst 1.2s ease-out infinite;transform-origin:128px 42px}@keyframes pop{0%,100%{transform:scale(1)}35%{transform:scale(1.08) translateY(-10px)}70%{transform:scale(.98)}}@keyframes burst{0%{transform:scale(.6);opacity:0}35%{opacity:1}100%{transform:scale(1.25);opacity:0}}</style>
  <g class="burst"><path d="M128 17v23M96 29l12 20M160 29l-12 20M73 57l21 11M183 68l21-11" stroke="#FFFFFF" stroke-width="8" stroke-linecap="round"/><circle cx="128" cy="44" r="18" fill="#F5B642"/></g>
  <ellipse cx="128" cy="229" rx="48" ry="10" fill="#071326" opacity=".16"/>
  <g class="body"><path d="M79 211c-10 0-18-8-18-18v-5h34v5c0 10-7 18-16 18Zm98 0c-10 0-18-8-18-18v-5h34v5c0 10-7 18-16 18Z" fill="#071326"/><rect x="161" y="105" width="34" height="58" rx="14" fill="#071326"/><path d="M128 38c46 0 80 37 80 88 0 58-35 94-80 94s-80-36-80-94c0-51 34-88 80-88Z" fill="#F5B642"/><path d="M80 84 128 24l48 60-26-8-22-30-22 30-26 8Z" fill="#FFFFFF"/><path d="m101 105 5 12 13 1-10 8 3 13-11-7-11 7 3-13-10-8 13-1 5-12Zm54 0 5 12 13 1-10 8 3 13-11-7-11 7 3-13-10-8 13-1 5-12Z" fill="#071326"/><path d="M98 153c14 20 46 20 60 0" fill="none" stroke="#071326" stroke-width="10" stroke-linecap="round"/><path d="M55 120c-30-20-25-45-5-52M201 120c30-20 25-45 5-52" fill="none" stroke="#F5B642" stroke-width="18" stroke-linecap="round"/></g>
</svg>
