<svg xmlns="http://www.w3.org/2000/svg" viewBox="0 0 256 256" role="img" aria-label="Kibo clapping animation">
  <style>.left{animation:clapL .7s ease-in-out infinite;transform-origin:80px 140px}.right{animation:clapR .7s ease-in-out infinite;transform-origin:176px 140px}@keyframes clapL{0%,100%{transform:rotate(-4deg)}50%{transform:rotate(12deg)}}@keyframes clapR{0%,100%{transform:rotate(4deg)}50%{transform:rotate(-12deg)}}</style>
  <path d="m45 66 14 10M211 66l-14 10M128 26v18" stroke="#FFFFFF" stroke-width="8" stroke-linecap="round"/><ellipse cx="128" cy="226" rx="54" ry="12" fill="#071326" opacity=".16"/><rect x="160" y="105" width="34" height="58" rx="14" fill="#071326"/><path d="M82 210c-10 0-18-8-18-18v-5h34v5c0 10-7 18-16 18Zm92 0c-10 0-18-8-18-18v-5h34v5c0 10-7 18-16 18Z" fill="#071326"/><path d="M128 39c46 0 80 37 80 88 0 58-35 94-80 94s-80-36-80-94c0-51 34-88 80-88Z" fill="#F5B642"/><path d="M80 85 128 25l48 60-26-8-22-30-22 30-26 8Z" fill="#FFFFFF"/><path d="M89 118c8-9 20-9 28 0M139 118c8-9 20-9 28 0M100 151c14 19 42 19 56 0" fill="none" stroke="#071326" stroke-width="9" stroke-linecap="round"/><path class="left" d="M72 134c18 17 35 22 56 13" fill="none" stroke="#F5B642" stroke-width="18" stroke-linecap="round"/><path class="right" d="M184 134c-18 17-35 22-56 13" fill="none" stroke="#F5B642" stroke-width="18" stroke-linecap="round"/>
</svg>
