<svg xmlns="http://www.w3.org/2000/svg" viewBox="0 0 256 256" role="img" aria-label="Kibo celebrate animation">
  <style>
    .body{animation:jump 1.1s ease-in-out infinite;transform-origin:128px 170px}.confetti{animation:fall 1.6s linear infinite}@keyframes jump{0%,100%{transform:translateY(0) rotate(0)}45%{transform:translateY(-22px) rotate(7deg)}70%{transform:translateY(-4px) rotate(-4deg)}}@keyframes fall{from{transform:translateY(-16px);opacity:0}30%{opacity:1}to{transform:translateY(28px);opacity:0}}
  </style>
  <g class="confetti"><path d="M38 55h14v14H38zM203 43h12v12h-12zM207 179h14v14h-14zM31 178h10v10H31z" fill="#FFFFFF"/><path d="m52 78 13 8m126-12 13-9M58 49 45 37m146 15 13-12" stroke="#F5B642" stroke-width="8" stroke-linecap="round"/></g>
  <ellipse cx="128" cy="229" rx="48" ry="10" fill="#071326" opacity=".16"/>
  <g class="body">
    <path d="M79 211c-10 0-18-8-18-18v-5h34v5c0 10-7 18-16 18Zm98 0c-10 0-18-8-18-18v-5h34v5c0 10-7 18-16 18Z" fill="#071326"/>
    <rect x="161" y="105" width="34" height="58" rx="14" fill="#071326"/>
    <path d="M128 38c46 0 80 37 80 88 0 58-35 94-80 94s-80-36-80-94c0-51 34-88 80-88Z" fill="#F5B642"/>
    <path d="M80 84 128 24l48 60-26-8-22-30-22 30-26 8Z" fill="#FFFFFF"/>
    <path d="M89 118c8-10 20-10 28 0M139 118c8-10 20-10 28 0" fill="none" stroke="#071326" stroke-width="9" stroke-linecap="round"/>
    <path d="M98 150c15 23 45 23 60 0" fill="none" stroke="#071326" stroke-width="10" stroke-linecap="round"/>
    <path d="M57 119c-28-32-16-61 3-68M199 119c28-32 16-61-3-68" fill="none" stroke="#F5B642" stroke-width="18" stroke-linecap="round"/>
  </g>
</svg>
