<svg xmlns="http://www.w3.org/2000/svg" viewBox="0 0 256 256" role="img" aria-label="Kibo sleeping animation">
  <style>.body{animation:sleep 3s ease-in-out infinite}.zzz{animation:float 2.2s ease-in-out infinite}@keyframes sleep{0%,100%{transform:translateY(0)}50%{transform:translateY(3px)}}@keyframes float{0%{transform:translateY(8px);opacity:0}45%{opacity:1}100%{transform:translateY(-14px);opacity:0}}</style>
  <g class="zzz"><text x="186" y="58" fill="#FFFFFF" font-family="Inter, Arial" font-size="26" font-weight="800">Z</text><text x="211" y="36" fill="#FFFFFF" font-family="Inter, Arial" font-size="18" font-weight="800">z</text></g>
  <g class="body">
    <ellipse cx="128" cy="226" rx="54" ry="12" fill="#071326" opacity=".16"/><rect x="160" y="105" width="34" height="58" rx="14" fill="#071326"/><path d="M82 210c-10 0-18-8-18-18v-5h34v5c0 10-7 18-16 18Zm92 0c-10 0-18-8-18-18v-5h34v5c0 10-7 18-16 18Z" fill="#071326"/><path d="M128 36c46 0 80 38 80 89 0 58-35 95-80 95s-80-37-80-95c0-51 34-89 80-89Z" fill="#F5B642"/><path d="M80 84 128 24l48 60-26-8-22-30-22 30-26 8Z" fill="#FFFFFF"/><path d="M88 121c9 8 22 8 31 0M137 121c9 8 22 8 31 0M112 154c10 5 22 5 32 0" fill="none" stroke="#071326" stroke-width="8" stroke-linecap="round"/>
  </g>
</svg>
